<?xml version="1.0" encoding="UTF-8" standalone="no"?>
<!DOCTYPE svg PUBLIC "-//W3C//DTD SVG 1.1//EN" "http://www.w3.org/Graphics/SVG/1.1/DTD/svg11.dtd">
<svg width="100%" height="100%" viewBox="0 0 512 512" version="1.1" xmlns="http://www.w3.org/2000/svg" xmlns:xlink="http://www.w3.org/1999/xlink" xml:space="preserve" xmlns:serif="http://www.serif.com/" style="fill-rule:evenodd;clip-rule:evenodd;stroke-linejoin:round;stroke-miterlimit:2;">
    <g id="Artboard1" transform="matrix(0.988856,0,0,1,-506.294,0)">
        <rect x="512" y="0" width="517.77" height="512" style="fill:white;fill-opacity:0;"/>
        <g transform="matrix(1.19785,0,0,1.47936,496.515,-100.608)">
            <g transform="matrix(-1,-1.22465e-16,1.22465e-16,-1,512,581.954)">
                <path d="M276.817,220.282C277.922,218.369 280.314,217.144 282.947,217.144C285.58,217.144 287.973,218.369 289.078,220.282C303.517,245.292 339.391,307.428 351.948,329.177C352.914,330.849 352.748,332.799 351.509,334.351C350.269,335.903 348.127,336.842 345.827,336.842C318.775,336.842 247.153,336.842 220.084,336.842C217.78,336.842 215.635,335.902 214.394,334.347C213.152,332.793 212.986,330.84 213.953,329.165C226.516,307.406 262.38,245.287 276.817,220.282Z" style="fill:rgb(255,129,0);fill-opacity:0.55;"/>
            </g>
            <g transform="matrix(1,0,0,1,-53.8947,-99.8421)">
                <path d="M276.847,220.229C277.947,218.325 280.328,217.106 282.947,217.106C285.567,217.106 287.948,218.325 289.047,220.229C303.472,245.213 339.408,307.457 351.962,329.2C352.924,330.867 352.759,332.812 351.523,334.359C350.288,335.906 348.153,336.842 345.859,336.842C318.833,336.842 247.168,336.842 220.086,336.842C217.782,336.842 215.636,335.902 214.395,334.347C213.153,332.792 212.987,330.838 213.954,329.163C226.527,307.387 262.431,245.199 276.847,220.229Z" style="fill:rgb(255,129,0);"/>
            </g>
        </g>
    </g>
</svg>
